<svg xmlns="http://www.w3.org/2000/svg" xmlns:xlink="http://www.w3.org/1999/xlink" version="1.1" x="0px" y="0px" viewBox="0 0 100 125" enable-background="new 0 0 100 100" xml:space="preserve"><path d="M93.338,33.382l-40.989-13.68c-1.286-0.38-3.37-0.394-4.738,0.013L6.703,33.368C5.222,33.807,5,34.657,5,35.127  c0,0.469,0.223,1.32,1.662,1.743l8.33,2.78c-0.605,0.736-0.93,1.544-0.93,2.418v8.624c-1.551,0.513-2.676,1.956-2.676,3.68  c0,1.013,0.396,1.927,1.03,2.619L8.924,77.119l0.026,0.188c0.047,0.336,0.624,3.279,6.329,3.279c5.612,0,6.441-2.846,6.518-3.171  l0.059-0.247l-3.708-20.187c0.63-0.691,1.023-1.602,1.023-2.61c0-1.724-1.126-3.167-2.676-3.68v-8.624c0-0.136,0-0.544,0.553-1.092  c0.159-0.157,0.35-0.308,0.555-0.455l8.933,2.981V58.7c0,2.966,2.244,5.857,5.001,6.445C35.197,65.928,41.372,66.86,50,66.86  s14.803-0.933,18.463-1.715c2.758-0.588,5.002-3.479,5.002-6.445V43.504l19.832-6.62C94.777,36.447,95,35.596,95,35.127  C95,34.657,94.778,33.807,93.338,33.382z M19.344,76.961c-0.279,0.363-1.228,1.193-4.064,1.193c-2.904,0-3.692-0.854-3.873-1.113  l3.27-18.838c0.198,0.031,0.396,0.061,0.604,0.061c0.212,0,0.416-0.029,0.619-0.063L19.344,76.961z M71.032,58.7  c0,1.816-1.438,3.717-3.078,4.066c-3.546,0.758-9.538,1.662-17.954,1.662s-14.408-0.904-17.955-1.662  c-1.64-0.35-3.077-2.25-3.077-4.066V44.314l18.684,6.236c0.093,0.027,0.197,0.049,0.298,0.072l1.664,0.559  c0.251,0.084,0.522,0.084,0.773,0l1.788-0.6c0.067-0.018,0.149-0.024,0.215-0.044l18.643-6.223V58.7z M72.218,41.356  c-0.12,0.003-0.24,0.017-0.356,0.056L51.389,48.28c-0.796,0.159-2.014,0.152-2.757,0.007l-20.493-6.875  c-0.116-0.038-0.236-0.053-0.355-0.056l-6.941-2.317c6.637-2.104,18.924-2.657,25.479-2.698c0.512,1.551,1.954,2.676,3.679,2.676  c2.152,0,3.892-1.74,3.892-3.892c0-2.148-1.739-3.892-3.892-3.892c-1.724,0-3.165,1.125-3.678,2.674  c-5.7,0.026-22.111,0.418-28.99,3.961l-8.216-2.742L48.34,22.035c0.84-0.248,2.521-0.235,3.28-0.013l39.264,13.104L72.218,41.356z"/><text x="0" y="115" fill="#000000" font-size="5px" font-weight="bold" font-family="'Helvetica Neue', Helvetica, Arial-Unicode, Arial, Sans-serif">Created by Milinda Courey</text><text x="0" y="120" fill="#000000" font-size="5px" font-weight="bold" font-family="'Helvetica Neue', Helvetica, Arial-Unicode, Arial, Sans-serif">from the Noun Project</text></svg>